<?xml version="1.0" encoding="UTF-8"?>
<svg xmlns="http://www.w3.org/2000/svg" xmlns:xlink="http://www.w3.org/1999/xlink" version="1.1" id="Capa_1" x="0px" y="0px" viewBox="0 0 512 512" style="enable-background:new 0 0 512 512;" xml:space="preserve" width="512" height="512">
<g>
	<path style="fill:#08A9F1;" d="M473.44,318.125h-62.125v-241c0-4.142,3.358-7.5,7.5-7.5h47.125c4.142,0,7.5,3.358,7.5,7.5V318.125z&#10;&#9;&#9;"/>
	<path style="fill:#05E39C;" d="M380.253,240.469h-62.125V46.062c0-4.142,3.358-7.5,7.5-7.5h47.125c4.142,0,7.5,3.358,7.5,7.5&#10;&#9;&#9;V240.469z"/>
	<path style="fill:#FFC344;" d="M287.065,224.938H224.94V123.719c0-4.142,3.358-7.5,7.5-7.5h47.125c4.142,0,7.5,3.358,7.5,7.5&#10;&#9;&#9;V224.938z"/>
	<path style="fill:#FD6930;" d="M193.877,240.469h-62.125V30.531c0-4.142,3.358-7.5,7.5-7.5h47.125c4.142,0,7.5,3.358,7.5,7.5&#10;&#9;&#9;V240.469z"/>
	<path style="fill:#E53950;" d="M100.69,318.125H38.565V154.781c0-4.142,3.358-7.5,7.5-7.5H93.19c4.142,0,7.5,3.358,7.5,7.5V318.125&#10;&#9;&#9;z"/>
	<path style="fill:#0290CF;" d="M466.16,69.625h-24.268c4.021,0,7.28,3.26,7.28,7.28v241.22h24.268V76.905&#10;&#9;&#9;C473.44,72.885,470.181,69.625,466.16,69.625z"/>
	<path style="fill:#0ED290;" d="M372.972,38.562h-24.268c4.021,0,7.28,3.26,7.28,7.28v194.626h24.268V45.843&#10;&#9;&#9;C380.253,41.822,376.993,38.562,372.972,38.562z"/>
	<path style="fill:#F6AB31;" d="M279.785,116.219h-24.268c4.021,0,7.28,3.259,7.28,7.28v101.438h24.268V123.499&#10;&#9;&#9;C287.065,119.478,283.806,116.219,279.785,116.219z"/>
	<path style="fill:#FD5426;" d="M186.597,23.031H162.33c4.021,0,7.28,3.26,7.28,7.28v210.157h24.268V30.312&#10;&#9;&#9;C193.877,26.291,190.618,23.031,186.597,23.031z"/>
	<path style="fill:#AC2638;" d="M93.41,147.281H69.142c4.021,0,7.28,3.26,7.28,7.28v163.563h24.268V154.562&#10;&#9;&#9;C100.69,150.541,97.431,147.281,93.41,147.281z"/>
	<path style="fill:#E53950;" d="M69.63,428.131c0,11.91,1.115,23.555,3.251,34.841c1.45,7.661-3.35,15.126-10.882,17.143&#10;&#9;&#9;l-31.124,8.337c-8.327,2.231-16.882-2.987-18.569-11.441C9.152,461.207,7.5,444.864,7.5,428.131&#10;&#9;&#9;c0-84.21,41.89-158.63,105.96-203.57l33.824,17.198l1.816,33.702C101.04,309.161,69.63,364.971,69.63,428.131z"/>
	<path style="fill:#01C0FA;" d="M504.5,428.131c0,16.733-1.651,33.076-4.806,48.879c-1.687,8.454-10.242,13.672-18.57,11.441&#10;&#9;&#9;l-31.115-8.336c-7.532-2.018-12.331-9.482-10.881-17.143c2.136-11.286,3.251-22.931,3.251-34.841&#10;&#9;&#9;c0-63.15-31.42-118.97-79.47-152.67l1.811-33.702l33.829-17.198C462.62,269.501,504.5,343.931,504.5,428.131z"/>
	<path style="fill:#01D0FB;" d="M504.5,428.131c0,16.733-1.651,33.076-4.806,48.879c-1.687,8.454-10.242,13.672-18.57,11.441&#10;&#9;&#9;l-31.115-8.336c-7.532-2.018-12.331-9.482-10.881-17.143c2.136-11.286,3.251-22.931,3.251-34.841&#10;&#9;&#9;c0-63.15-31.42-118.97-79.47-152.67l1.811-33.702l33.829-17.198C462.62,269.501,504.5,343.931,504.5,428.131z"/>
	<path style="fill:#01C0FA;" d="M451.029,395.877L451.029,395.877c-2.085-7.783-7.875-13.584-14.963-16.016&#10;&#9;&#9;c3.508,13.116,5.621,26.801,6.17,40.888C449.802,415.241,453.596,405.456,451.029,395.877z"/>
	<path style="fill:#FFC344;" d="M398.55,224.561l-35.64,50.9c-30.26-21.24-67.13-33.7-106.91-33.7c-39.78,0-76.64,12.46-106.9,33.7&#10;&#9;&#9;l-35.64-50.9c40.35-28.31,89.51-44.93,142.54-44.93C309.04,179.631,358.2,196.251,398.55,224.561z"/>
	<path style="fill:#FFC344;" d="M398.55,224.561l-35.64,50.9c-30.26-21.24-67.13-33.7-106.91-33.7c-39.78,0-76.64,12.46-106.9,33.7&#10;&#9;&#9;l-35.64-50.9c40.35-28.31,89.51-44.93,142.54-44.93C309.04,179.631,358.2,196.251,398.55,224.561z"/>
	<path style="fill:#FFC344;" d="M398.55,224.561l-35.64,50.9c-30.26-21.24-67.13-33.7-106.91-33.7c-39.78,0-76.64,12.46-106.9,33.7&#10;&#9;&#9;l-35.64-50.9c40.35-28.31,89.51-44.93,142.54-44.93C309.04,179.631,358.2,196.251,398.55,224.561z"/>
	<path style="fill:#FFC344;" d="M398.55,224.561l-35.64,50.9c-30.26-21.24-67.13-33.7-106.91-33.7c-39.78,0-76.64,12.46-106.9,33.7&#10;&#9;&#9;l-35.64-50.9c40.35-28.31,89.51-44.93,142.54-44.93C309.04,179.631,358.2,196.251,398.55,224.561z"/>
	<path style="fill:#01C0FA;" d="M398.55,224.561l-9.779,4.971c46.759,45.28,75.729,108.707,75.729,178.599&#10;&#9;&#9;c0,16.733-1.651,33.076-4.806,48.879c-1.687,8.454-10.242,13.672-18.57,11.441l-2.091-0.56c0.863,5.733,5.083,10.646,10.976,12.224&#10;&#9;&#9;l31.115,8.336c8.328,2.231,16.883-2.987,18.57-11.441c3.154-15.804,4.806-32.146,4.806-48.879&#10;&#9;&#9;C504.5,343.931,462.62,269.501,398.55,224.561z"/>
	<path style="fill:#FEB237;" d="M392.492,233.213l6.058-8.651c-16.029-11.246-33.448-20.647-51.949-27.895&#10;&#9;&#9;C363.33,207.026,378.728,219.314,392.492,233.213z"/>
	<path style="fill:#024C67;" d="M305.112,445.734l-24.059,15.885l-20.099-75.01l28.778,1.727&#10;&#9;&#9;c13.411,0.805,26.864-0.557,39.842-4.035l92.922-24.898c12.428-3.33,25.203,4.045,28.533,16.473v0&#10;&#9;&#9;c3.33,12.428-4.045,25.203-16.473,28.533l-92.922,24.898C328.656,432.785,316.324,438.332,305.112,445.734z"/>
	<circle style="fill:#017297;" cx="256.003" cy="428.134" r="46.594"/>
	<circle style="fill:#01C0FA;" cx="256.003" cy="428.134" r="16.821"/>
	<path style="fill:none;stroke:#000000;stroke-width:15;stroke-linecap:round;stroke-linejoin:round;stroke-miterlimit:10;" d="&#10;&#9;&#9;M211.325,414.866c-1.247,4.205-1.916,8.658-1.916,13.268c0,25.733,20.861,46.594,46.594,46.594s46.594-20.861,46.594-46.594&#10;&#9;&#9;c0-25.733-20.861-46.594-46.594-46.594c-8.504,0-16.476,2.278-23.339,6.258"/>
	<path style="fill:none;stroke:#000000;stroke-width:15;stroke-linecap:round;stroke-linejoin:round;stroke-miterlimit:10;" d="&#10;&#9;&#9;M149.1,275.461c-48.06,33.7-79.47,89.51-79.47,152.67c0,11.91,1.115,23.555,3.251,34.841c1.45,7.661-3.35,15.126-10.882,17.143&#10;&#9;&#9;l-31.124,8.337c-8.327,2.231-16.882-2.987-18.569-11.441C9.152,461.207,7.5,444.864,7.5,428.131&#10;&#9;&#9;c0-84.21,41.89-158.63,105.96-203.57"/>
	<path style="fill:none;stroke:#000000;stroke-width:15;stroke-linecap:round;stroke-linejoin:round;stroke-miterlimit:10;" d="&#10;&#9;&#9;M362.91,275.459c29.35,20.59,52.5,49.43,66.07,83.15"/>
	<path style="fill:none;stroke:#000000;stroke-width:15;stroke-linecap:round;stroke-linejoin:round;stroke-miterlimit:10;" d="&#10;&#9;&#9;M398.55,224.559c64.07,44.94,105.95,119.37,105.95,203.57c0,16.74-1.65,33.08-4.81,48.88c-1.68,8.46-10.24,13.67-18.57,11.44&#10;&#9;&#9;l-31.11-8.33c-7.53-2.02-12.33-9.48-10.88-17.15c2.13-11.28,3.25-22.93,3.25-34.84c0-8.91-0.63-17.68-1.84-26.26"/>
	<path style="fill:none;stroke:#000000;stroke-width:15;stroke-linecap:round;stroke-linejoin:round;stroke-miterlimit:10;" d="&#10;&#9;&#9;M319.29,252.782c-19.759-7.133-41.071-11.021-63.29-11.021c-39.78,0-76.64,12.46-106.9,33.7l-35.64-50.9&#10;&#9;&#9;c40.35-28.31,89.51-44.93,142.54-44.93c53.04,0,102.2,16.62,142.55,44.93l-35.64,50.9c-3.764-2.642-7.63-5.148-11.591-7.511"/>
	<path style="fill:none;stroke:#000000;stroke-width:15;stroke-linecap:round;stroke-linejoin:round;stroke-miterlimit:10;" d="&#10;&#9;&#9;M100.69,234.143v-79.362c0-4.142-3.358-7.5-7.5-7.5H46.065c-4.142,0-7.5,3.358-7.5,7.5v152.954"/>
	
		<line style="fill:none;stroke:#000000;stroke-width:15;stroke-linecap:round;stroke-linejoin:round;stroke-miterlimit:10;" x1="131.753" y1="146.308" x2="131.753" y2="212.884"/>
	<path style="fill:none;stroke:#000000;stroke-width:15;stroke-linecap:round;stroke-linejoin:round;stroke-miterlimit:10;" d="&#10;&#9;&#9;M193.877,187.463V30.531c0-4.142-3.358-7.5-7.5-7.5h-47.125c-4.142,0-7.5,3.358-7.5,7.5v79.777"/>
	<path style="fill:none;stroke:#000000;stroke-width:15;stroke-linecap:round;stroke-linejoin:round;stroke-miterlimit:10;" d="&#10;&#9;&#9;M287.065,181.555v-57.836c0-4.142-3.358-7.5-7.5-7.5H232.44c-4.142,0-7.5,3.358-7.5,7.5v57.836"/>
	<path style="fill:none;stroke:#000000;stroke-width:15;stroke-linecap:round;stroke-linejoin:round;stroke-miterlimit:10;" d="&#10;&#9;&#9;M380.253,212.881V46.062c0-4.142-3.358-7.5-7.5-7.5h-47.125c-4.142,0-7.5,3.358-7.5,7.5v141.4"/>
	<path style="fill:none;stroke:#000000;stroke-width:15;stroke-linecap:round;stroke-linejoin:round;stroke-miterlimit:10;" d="&#10;&#9;&#9;M473.44,307.738V77.125c0-4.142-3.358-7.5-7.5-7.5h-47.125c-4.142,0-7.5,3.358-7.5,7.5v157.014"/>
	<path style="fill:none;stroke:#000000;stroke-width:15;stroke-linecap:round;stroke-linejoin:round;stroke-miterlimit:10;" d="&#10;&#9;&#9;M296.285,451.563l8.827-5.828c11.212-7.403,23.544-12.949,36.521-16.427l92.922-24.898c12.428-3.33,19.803-16.105,16.473-28.533&#10;&#9;&#9;l0,0c-3.33-12.428-16.105-19.803-28.533-16.473l-92.922,24.898c-12.977,3.477-26.431,4.84-39.842,4.035l-10.557-0.634"/>
	
		<circle style="fill:none;stroke:#000000;stroke-width:15;stroke-linecap:round;stroke-linejoin:round;stroke-miterlimit:10;" cx="256.003" cy="428.134" r="16.821"/>
</g>















</svg>
