<svg clip-rule="evenodd" fill-rule="evenodd" height="2in" image-rendering="optimizeQuality" shape-rendering="geometricPrecision" text-rendering="geometricPrecision" viewBox="0 0 2000 2000" width="2in" xmlns="http://www.w3.org/2000/svg"><g id="Layer_x0020_1"><path d="m852 1829c-389 0-705-316-705-705 0-18 15-33 33-33h1343c19 0 34 15 34 33 0 389-317 705-705 705z" fill="#13a5d8"/><path d="m1156 927c-33 0-46-43-18-61 18-12 66-51 70-91 2-18-6-35-23-53-115-114-11-310-6-319 21-38 79-7 59 32-2 3-85 162-6 240 117 118-42 252-76 252zm-603 835c-240-112-406-356-406-638 0-18 15-33 33-33h1436c131 0 237 107 237 237 0 131-106 238-237 238h-216c-66 83-152 151-249 196h283c44 0 44 67 0 67h-1164c-44 0-44-67 0-67zm-339-604c18 336 297 604 638 604 340 0 620-268 637-604zm1235 341h167c94 0 171-76 171-171 0-94-77-170-171-170h-60c-6 123-42 237-107 341zm-987-572c-33 0-46-43-18-61 18-12 66-51 70-91 2-18-6-35-23-53-114-114-11-310-6-319 21-38 79-7 59 32-1 2-85 161-6 240 117 118-42 252-76 252zm347-215c-33 0-46-43-18-61 18-12 66-51 70-91 2-18-6-35-23-52-114-115-11-311-6-320 21-38 79-7 59 32-1 2-85 161-6 240 117 118-42 252-76 252z"/></g></svg>