<svg id="Layer_3" height="512" viewBox="0 0 64 64" width="512" xmlns="http://www.w3.org/2000/svg" data-name="Layer 3"><path d="m22 12h-17a3 3 0 0 0 -3 3v34a3 3 0 0 0 3 3h54a3 3 0 0 0 3-3v-34a3 3 0 0 0 -3-3h-17" fill="#a3b8db"/><path d="m62 49v-34a3 3 0 0 0 -3-3h-50a3 3 0 0 0 -3 3v34a3 3 0 0 0 3 3h50a3 3 0 0 0 3-3z" fill="#c0cee8"/><path d="m39 58-1-6h-12l-1 6z" fill="#989898"/><path d="m28 52-1 6h12l-1-6z" fill="#b2b2b2"/><path d="m21 58h22v4h-22z" fill="#cbcbcb"/><path d="m2 49a3 3 0 0 0 3 3h54a3 3 0 0 0 3-3v-5h-60z" fill="#cbcbcb"/><path d="m62 49v-5h-56v5a3 3 0 0 0 3 3h50a3 3 0 0 0 3-3z" fill="#e5e5e5"/><path d="m25 60h18v-2h-20a2 2 0 0 0 2 2z" fill="#e5e5e5"/><path d="m29 47h6v2h-6z" fill="#fff"/><circle cx="32" cy="14" fill="#62c1ea" r="12"/><path d="m32 2a11.93 11.93 0 0 0 -7.419 2.581 11.988 11.988 0 0 0 16.838 16.838 11.988 11.988 0 0 0 -9.419-19.419z" fill="#86ddfa"/><path d="m24 14 1.172 1.172a9.656 9.656 0 0 0 6.828 2.828 9.656 9.656 0 0 0 6.828-2.828l1.172-1.172-1.172-1.172a9.656 9.656 0 0 0 -6.828-2.828 9.656 9.656 0 0 0 -6.828 2.828z" fill="#fff"/><circle cx="32" cy="14" fill="#4c4c4c" r="3"/><path d="m32 11a2.965 2.965 0 0 0 -1.554.446 2.965 2.965 0 0 0 -.446 1.554 3 3 0 0 0 3 3 2.965 2.965 0 0 0 1.554-.446 2.965 2.965 0 0 0 .446-1.554 3 3 0 0 0 -3-3z" fill="#5b5b5b"/><g fill="#fff"><path d="m31 20h2v3h-2z"/><path d="m37 18.586h2v2.828h-2z" transform="matrix(.707 -.707 .707 .707 -3.012 32.728)"/><path d="m24.586 19h2.828v2h-2.828z" transform="matrix(.707 -.707 .707 .707 -6.527 24.243)"/><path d="m31 5h2v3h-2z"/><path d="m36.586 7h2.828v2h-2.828z" transform="matrix(.707 -.707 .707 .707 5.473 29.213)"/><path d="m25 6.586h2v2.828h-2z" transform="matrix(.707 -.707 .707 .707 1.958 20.728)"/></g><path d="m35.707 35.707-1.414-1.414 8-8a1 1 0 0 1 1.414 0l3.185 3.185 5.308-7.078a1 1 0 0 1 1.355-.232l2.318 1.545 2.42-2.42 1.414 1.414-3 3a1 1 0 0 1 -1.262.125l-2.213-1.476-5.432 7.244a1 1 0 0 1 -1.507.107l-3.293-3.293z" fill="#ff4b50"/><path d="m38 35h2v5h-2z" fill="#f9cb52"/><path d="m42 31h2v9h-2z" fill="#8bc000"/><path d="m46 34h2v6h-2z" fill="#0056c0"/><path d="m50 31h2v9h-2z" fill="#f89b1c"/><path d="m54 27h2v13h-2z" fill="#62c1ea"/><path d="m10 36v4h12v-14h-4" fill="#004a9e"/><path d="m6 22h12v14h-12z" fill="#0056c0"/><path d="m8 29.205a4.8 4.8 0 0 0 4.8 4.795h5.2v-12h-10z" fill="#0068dd"/><path d="m11 25h4v2h-4z" fill="#fff"/><path d="m9 29h6v2h-6z" fill="#fff"/><path d="m35 39h24v2h-24z" fill="#fff"/><path d="m59 11h-14.363a12.985 12.985 0 0 0 -25.274 0h-14.363a4 4 0 0 0 -4 4v34a4 4 0 0 0 4 4h19.82l-.667 4h-3.153a1 1 0 0 0 -1 1v4a1 1 0 0 0 1 1h22a1 1 0 0 0 1-1v-4a1 1 0 0 0 -1-1h-3.153l-.667-4h19.82a4 4 0 0 0 4-4v-34a4 4 0 0 0 -4-4zm-27-8a11 11 0 1 1 -11 11 11.013 11.013 0 0 1 11-11zm-27 10h14.051c-.026.331-.051.662-.051 1a13 13 0 0 0 26 0c0-.338-.025-.669-.051-1h14.051a2 2 0 0 1 2 2v28h-58v-28a2 2 0 0 1 2-2zm37 48h-20v-2h20zm-4.18-4h-11.64l.667-4h10.306zm21.18-6h-54a2 2 0 0 1 -2-2v-4h58v4a2 2 0 0 1 -2 2z"/><path d="m29 47h6v2h-6z"/><path d="m32 19a10.59 10.59 0 0 0 7.536-3.121l1.171-1.172a1 1 0 0 0 0-1.414l-1.171-1.172a10.659 10.659 0 0 0 -15.072 0l-1.171 1.172a1 1 0 0 0 0 1.414l1.171 1.172a10.59 10.59 0 0 0 7.536 3.121zm0-7a2 2 0 1 1 -2 2 2 2 0 0 1 2-2zm6.586 2-.464.465a8.646 8.646 0 0 1 -2.935 1.926 3.922 3.922 0 0 0 0-4.782 8.646 8.646 0 0 1 2.935 1.926zm-12.708-.465a8.646 8.646 0 0 1 2.935-1.926 3.922 3.922 0 0 0 0 4.782 8.646 8.646 0 0 1 -2.935-1.926l-.464-.465z"/><path d="m31 20h2v3h-2z"/><path d="m37 18.586h2v2.828h-2z" transform="matrix(.707 -.707 .707 .707 -3.012 32.728)"/><path d="m24.586 19h2.828v2h-2.828z" transform="matrix(.707 -.707 .707 .707 -6.527 24.243)"/><path d="m31 5h2v3h-2z"/><path d="m36.586 7h2.828v2h-2.828z" transform="matrix(.707 -.707 .707 .707 5.473 29.213)"/><path d="m25 6.586h2v2.828h-2z" transform="matrix(.707 -.707 .707 .707 1.958 20.728)"/><path d="m43 28.414 3.293 3.293a1 1 0 0 0 1.507-.107l5.432-7.244 2.213 1.476a1 1 0 0 0 1.262-.125l3-3-1.414-1.414-2.42 2.42-2.318-1.545a1 1 0 0 0 -1.355.232l-5.308 7.078-3.185-3.185a1 1 0 0 0 -1.414 0l-8 8 1.414 1.414z"/><path d="m56 27h-2v12h-2v-8h-2v8h-2v-5h-2v5h-2v-8h-2v8h-2v-4h-2v4h-3v2h24v-2h-3z"/><path d="m6 37h3v3a1 1 0 0 0 1 1h12a1 1 0 0 0 1-1v-14a1 1 0 0 0 -1-1h-3v-3a1 1 0 0 0 -1-1h-12a1 1 0 0 0 -1 1v14a1 1 0 0 0 1 1zm13-1v-9h2v12h-10v-2h7a1 1 0 0 0 1-1zm-12-13h10v12h-10z"/><path d="m11 25h4v2h-4z"/><path d="m9 29h6v2h-6z"/></svg>