<svg height="512" viewBox="0 0 58 54" width="512" xmlns="http://www.w3.org/2000/svg"><g id="Page-1" fill="none" fill-rule="evenodd"><g id="059---Desktop-Setup" fill-rule="nonzero"><path id="Rectangle-path" d="m26 33h6v11h-6z" fill="#285680"/><path id="Shape" d="m58 31v2c-.0032948 1.1032019-.8967981 1.9967052-2 2h-34l-1-6z" fill="#4482c3"/><path id="Shape" d="m43.68 50.55c-.2701629.1775706-.586709.2714909-.91.27-.1836801-.0006301-.3660442-.0310241-.54-.09l-13.23-4.73-7 2.5v-4.5l4-2h6l11.5 5.75c.5176799.2575297.859127.7711637.8962203 1.3481716.0370934.5770078-.2357763 1.1301336-.7162203 1.4518284z" fill="#4482c3"/><path id="Shape" d="m58 5v26h-38v-28h36c1.1032019.0032948 1.9967052.89679813 2 2z" fill="#b0d3f0"/><rect id="Rectangle-path" fill="#547580" height="54" rx="3" width="22"/><g fill="#3f5c6c"><rect id="Rectangle-path" height="4" rx="2" width="14" x="4" y="8"/><rect id="Rectangle-path" height="4" rx="2" width="14" x="4" y="16"/><path id="Shape" d="m19 0-2.4 3.2c-.3777088.50361169-.9704854.8-1.6.8h-8c-.62951461 0-1.22229124-.29638831-1.6-.8l-2.4-3.2"/><path id="Shape" d="m0 25 3.611 4.514c.25318681.3165903.40419103.702645.433 1.107l.881 12.331c.04556572.6545666-.2328377 1.2898495-.745 1.7l-4.18 3.348"/><path id="Shape" d="m22 25-3.611 4.514c-.2531868.3165903-.404191.702645-.433 1.107l-.881 12.331c-.0455657.6545666.2328377 1.2898495.745 1.7l4.18 3.348"/><circle id="Oval" cx="11" cy="29" r="3"/></g><path id="Shape" d="m8 51h-3c-.55228475 0-1-.4477153-1-1s.44771525-1 1-1h3c.55228475 0 1 .4477153 1 1s-.44771525 1-1 1z" fill="#35495e"/><path id="Shape" d="m17 51h-3c-.5522847 0-1-.4477153-1-1s.4477153-1 1-1h3c.5522847 0 1 .4477153 1 1s-.4477153 1-1 1z" fill="#35495e"/><path id="Shape" d="m26 10c-.4043959-.00008635-.7689341-.2437275-.923678-.61734544s-.0692299-.80366031.216678-1.08965456l2-2c.3923789-.37897221 1.0160848-.37355237 1.4018186.01218142.3857338.3857338.3911536 1.00943969.0121814 1.40181858l-2 2c-.1874927.18754937-.4418052.29294336-.707.293z" fill="#fff"/><path id="Shape" d="m26 15c-.4043959-.0000863-.7689341-.2437275-.923678-.6173454-.1547439-.373618-.0692299-.8036603.216678-1.0896546l7-7c.3923789-.37897221 1.0160848-.37355237 1.4018186.01218142.3857338.3857338.3911536 1.00943969.0121814 1.40181858l-7 7c-.1874927.1875494-.4418052.2929434-.707.293z" fill="#fff"/></g></g></svg>